HIERARCHY
ROOT Hips
{
  OFFSET 0 0 0
  CHANNELS 6 Xposition Yposition Zposition Zrotation Xrotation Yrotation
  JOINT Spine
  {
    OFFSET 0 9.9235 -1.22729
    CHANNELS 3 Zrotation Xrotation Yrotation
    JOINT Spine1
    {
      OFFSET -9.9969e-05 11.6454 -1.4223
      CHANNELS 3 Zrotation Xrotation Yrotation
      JOINT Spine2
      {
        OFFSET 9.98118e-05 13.3602 -1.6265
        CHANNELS 3 Zrotation Xrotation Yrotation
        JOINT Neck
        {
          OFFSET 0 15.0325 0.7929
          CHANNELS 3 Zrotation Xrotation Yrotation
          JOINT Head
          {
            OFFSET 0 10.3218 3.1424
            CHANNELS 3 Zrotation Xrotation Yrotation
            End Site
            {
              OFFSET 0.0002 18.4747 6.6364
            }
          }
        }
        JOINT LeftShoulder
        {
          OFFSET 6.1058 9.1104 0.7056
          CHANNELS 3 Zrotation Xrotation Yrotation
          JOINT LeftArm
          {
            OFFSET 12.655 -0.265904 -2.60091
            CHANNELS 3 Zrotation Xrotation Yrotation
            JOINT LeftForeArm
            {
              OFFSET 27.4047 0 0
              CHANNELS 3 Zrotation Xrotation Yrotation
              JOINT LeftHand
              {
                OFFSET 27.6145 -1.98104e-05 0
                CHANNELS 3 Zrotation Xrotation Yrotation
                End Site
                {
                  OFFSET 12.7755 0 0
                }
              }
            }
          }
        }
        JOINT RightShoulder
        {
          OFFSET -6.1057 9.1105 0.7056
          CHANNELS 3 Zrotation Xrotation Yrotation
          JOINT RightArm
          {
            OFFSET -12.655 -0.265999 -2.6009
            CHANNELS 3 Zrotation Xrotation Yrotation
            JOINT RightForeArm
            {
              OFFSET -27.4047 0 0
              CHANNELS 3 Zrotation Xrotation Yrotation
              JOINT RightHand
              {
                OFFSET -27.6145 0 0
                CHANNELS 3 Zrotation Xrotation Yrotation
                End Site
                {
                  OFFSET -12.7755 0 0
                }
              }
            }
          }
        }
      }
    }
  }
  JOINT RightUpLeg
  {
    OFFSET -9.12449 -6.6564 -0.0554004
    CHANNELS 3 Zrotation Xrotation Yrotation
    JOINT RightLeg
    {
      OFFSET -0.245231 -40.5954 -0.51698
      CHANNELS 3 Zrotation Xrotation Yrotation
      JOINT RightFoot
      {
        OFFSET 0.244701 -42.0479 -2.0602
        CHANNELS 3 Zrotation Xrotation Yrotation
        JOINT RightToe
        {
          OFFSET -0.373402 -10.4922 12.6407
          CHANNELS 3 Zrotation Xrotation Yrotation
          End Site
          {
            OFFSET 0 0 9.9925
          }
        }
      }
    }
  }
  JOINT LeftUpLeg
  {
    OFFSET 9.1245 -6.6564 -0.055401
    CHANNELS 3 Zrotation Xrotation Yrotation
    JOINT LeftLeg
    {
      OFFSET 0.245022 -40.5954 -0.518725
      CHANNELS 3 Zrotation Xrotation Yrotation
      JOINT LeftFoot
      {
        OFFSET -0.244696 -42.048 -2.0576
        CHANNELS 3 Zrotation Xrotation Yrotation
        JOINT LeftToe
        {
          OFFSET 0.373399 -10.4922 12.6407
          CHANNELS 3 Zrotation Xrotation Yrotation
          End Site
          {
            OFFSET 0 0 9.9925
          }
        }
      }
    }
  }
}
MOTION
Frames:	16
Frame Time:	0.0416667
-0.05123 97.9313 -0.299134 2.1419 -5.44023 -15.7345 -0.986492 7.03234 -0.870057 -0.136518 2.12375 -0.552956 -0.131378 2.12789 -0.542347 1.21789 -0.00385609 2.46531 -4.65949 -4.83734 13.9065 -8.8929 3.22341 -2.78478 -65.0766 9.19842 -5.15049 6.87347e-17 -1.27222e-14 -21.7144 -4.76354 16.2124 -3.45308 11.4102 4.03975 10.5716 71.8622 -23.0107 3.69164 3.36809e-15 -3.18055e-15 15.6474 8.01661 28.78 2.69117 -1.61914 -0.821062 -11.0247 -0.643443 21.0821 -9.61672 0.405985 -16.2466 -3.39249 0.000338584 0.0816697 3.18056e-15 2.96068 -6.45751 8.40391 1.18003 15.2618 1.05693 -6.02443 -3.59973 0.0319529 -2.92662e-17 1.27803 1.59067e-15 
-0.105915 97.8698 -0.125984 2.19 -5.49037 -16.6859 -1.10782 7.17426 -0.989432 -0.178482 2.07336 -0.625973 -0.172131 2.07797 -0.615685 1.23051 0.0917913 2.50823 -4.62243 -4.78998 14.2379 -8.69538 3.21655 -2.88868 -65.2726 9.39351 -5.29804 1.09882e-05 -9.54166e-15 -20.9874 -3.67143 15.7874 -3.88988 11.413 4.03909 10.5531 71.8123 -22.7624 3.48933 1.64988e-15 0 15.4479 7.51006 28.8622 3.59788 -1.99508 -0.989323 -11.2281 -0.583872 21.6085 -9.63511 0.603103 -16.5715 -2.2471 8.8827e-18 0.0800082 -6.36112e-15 2.91036 -6.27289 8.5912 1.17717 15.4106 1.68372 -6.14501 -3.59081 0.0606591 -3.68132e-18 0.489067 7.95168e-16 
-0.149167 97.77 0.0795251 2.13993 -5.53402 -17.8372 -1.16303 7.32878 -1.1261 -0.217397 2.06191 -0.711623 -0.209642 2.06689 -0.701755 1.21525 0.135407 2.56417 -4.57002 -4.76718 14.6013 -8.42472 3.20284 -2.99 -65.3845 9.8282 -5.17926 3.51623e-05 -6.36111e-15 -21.453 -2.78785 14.9652 -3.00603 11.4507 4.04109 10.5258 71.5126 -22.3449 2.64024 5.81996e-16 6.36111e-15 16.7003 7.44394 28.2458 4.03475 -2.33238 -1.21006 -11.3585 -0.519699 22.2932 -9.65942 0.856889 -16.9735 -0.950515 0.000166683 0.0764877 3.18056e-15 3.00241 -6.28011 8.76073 1.1806 16.0712 2.59198 -6.34823 -3.90905 0.0463029 1.55301e-18 0 -7.95139e-16 
-0.16696 97.6577 0.330199 2.01961 -5.55054 -18.9736 -1.16211 7.49586 -1.33647 -0.258487 2.12187 -0.846553 -0.248771 2.1275 -0.837013 1.17038 0.105127 2.64608 -4.56696 -4.82806 15.0786 -8.03582 3.18139 -3.1469 -65.1308 10.599 -5.54351 -3.05498e-15 -3.18055e-15 -22.7092 -2.7312 13.7826 -1.21436 11.5015 4.04259 10.4847 70.7924 -21.5878 1.54089 5.79026e-16 3.18055e-15 19.1487 8.46772 27.0259 4.06172 -2.56945 -1.34893 -11.3711 -0.472889 22.9003 -9.21214 0.965628 -17.3911 -0.305134 0.000321076 0.0751749 -0 3.14412 -6.44749 8.76064 1.19307 17.0962 3.181 -6.55432 -4.71134 -0.0950404 -1.92453e-19 -6.02794e-05 1.59028e-15 
-0.139704 97.5652 0.586901 1.89434 -5.47902 -19.9277 -1.13254 7.68133 -1.61293 -0.301356 2.21524 -1.02378 -0.289077 2.22164 -1.01452 1.13297 0.0382182 2.74949 -4.69579 -5.03941 15.7104 -7.4676 3.15579 -3.42141 -63.8676 11.8926 -7.84659 7.40341e-15 9.54166e-15 -22.5387 -3.12039 12.3026 -0.581164 11.478 4.0382 10.4486 69.2402 -20.4289 0.786062 -1.31258e-15 3.18055e-15 22.4254 10.0981 25.1443 4.07359 -2.70734 -1.38196 -11.338 -0.452944 23.2526 -8.28925 0.934834 -17.7349 -0.276099 0.000313757 0.0702247 -0 3.04841 -6.75936 8.63742 1.19903 18.1993 2.18186 -6.35651 -5.75197 -0.219183 5.92424e-24 4.7394e-23 -0 
-0.0197618 97.4759 0.820611 1.7158 -5.25689 -20.7876 -1.05512 7.88624 -1.87935 -0.34427 2.25832 -1.18971 -0.329217 2.26524 -1.1811 1.12302 0.0412364 2.85358 -4.86989 -5.31027 16.4535 -6.74465 3.12281 -3.78277 -61.2308 13.5902 -12.1828 -1.9501e-05 3.18055e-15 -21.4812 -2.91918 10.6231 -1.90184 11.3701 4.03258 10.5254 66.4176 -19.0841 0.719876 -1.77735e-15 0 26.5242 10.9484 22.3925 4.28674 -2.78012 -1.48534 -11.3768 -0.430586 23.5001 -7.35808 0.92615 -18.0045 -0.271784 0.000320037 0.0591644 1.27222e-14 2.58701 -8.00546 8.62876 1.20219 20.5104 -1.0344 -4.22716 -7.5148 -0.198161 -0.0101153 0.0044869 3.18055e-15 
0.21287 97.3876 1.07725 1.50809 -4.88986 -21.6741 -0.961682 8.08017 -2.08315 -0.405029 2.23749 -1.31179 -0.387378 2.24477 -1.30464 1.12189 0.168726 2.94397 -4.91999 -5.46019 17.3688 -6.03954 3.05728 -4.13125 -56.8385 15.1908 -17.7175 -6.24033e-05 0 -21.9621 -1.32484 8.72634 -3.43516 11.3541 4.04927 10.8813 61.9068 -17.9527 1.68849 -3.64744e-15 -3.18055e-15 31.4322 9.90988 18.95 4.58771 -2.88918 -1.71562 -11.5888 -0.404821 23.6756 -6.18566 0.918464 -18.2085 -0.297719 -0.000254213 0.0454242 -1.27222e-14 1.9839 -10.2254 8.79206 1.20088 23.4873 -4.97422 -1.82887 -8.23086 -0.00224722 2.63796e-16 -1.17097 3.18122e-15 
0.518011 97.3767 1.43839 1.38731 -4.42083 -22.6009 -0.956258 8.23143 -2.23106 -0.518983 2.18925 -1.3983 -0.49914 2.19626 -1.39359 1.11346 0.36714 3.02267 -4.773 -5.38659 18.7067 -5.50123 2.92135 -4.45746 -50.3233 16.0979 -24.2174 -0.000200069 -6.36111e-15 -25.0568 1.30753 6.26925 -3.54671 11.6261 4.08477 11.4992 55.6636 -17.3447 4.04996 6.92552e-05 -3.18055e-15 36.6069 7.10709 15.6462 4.7035 -3.11248 -1.87598 -11.8929 -0.344934 23.5372 -4.7565 0.88403 -18.2016 -0.351588 -0.000128091 0.0358928 6.36111e-15 1.69961 -13.0907 8.90683 1.05437 25.7657 -7.33843 -1.88523 -6.9707 0.0767484 -2.59773e-16 -1.09854 -3.18114e-15 
0.832226 97.4558 1.94887 1.37106 -3.93232 -23.6463 -1.1462 8.38077 -2.32537 -0.698656 2.1616 -1.45232 -0.677157 2.16832 -1.45087 1.10076 0.602715 3.09776 -4.6001 -5.1456 20.6136 -5.02891 2.69992 -4.90365 -42.2085 15.3295 -31.9738 0.000316574 3.18055e-15 -28.2628 4.47071 2.98237 -3.09612 11.9967 4.071 12.0685 48.4125 -17.4494 8.30234 -2.79611e-15 3.18055e-15 41.3195 3.65188 13.216 4.51317 -3.42821 -1.80496 -12.1127 -0.248121 22.7971 -3.27268 0.855917 -17.9187 -0.411874 2.83402e-18 0.0325207 -6.36111e-15 1.66627 -16.2889 8.91071 0.925285 27.343 -6.79367 -2.21863 -6.33652 0.112834 -9.93923e-17 -1.10585 -0 
1.1127 97.5996 2.6376 1.40596 -3.53772 -24.8893 -1.54893 8.58392 -2.34833 -0.919331 2.16159 -1.46294 -0.896857 2.16817 -1.46459 1.07519 0.885231 3.16937 -4.61111 -4.87326 22.9248 -4.39047 2.4134 -5.62047 -33.9762 11.9397 -39.9049 0.00657418 0 -30.5326 7.69948 -0.521233 -2.95406 12.1034 3.95223 12.3946 41.1351 -18.6709 14.409 -0.00127843 -3.18055e-15 45.0737 0.131801 11.8172 4.15792 -3.85103 -1.42288 -12.2171 -0.107556 21.6308 -1.89569 0.928066 -17.4427 -0.453562 -0.0051572 0.0288006 3.18056e-15 1.90866 -19.3166 8.88698 0.710115 27.787 -5.06191 -2.24247 -5.49234 0.121573 -9.20683e-17 -0.737363 6.36164e-15 
1.33116 97.7445 3.55164 1.44123 -3.20482 -26.2591 -2.10828 8.7923 -2.27602 -1.1459 2.16708 -1.41442 -1.12347 2.17363 -1.41967 1.01603 1.25084 3.22009 -4.78594 -4.60319 25.2364 -3.46025 2.09737 -6.66674 -26.9667 5.86838 -46.0951 1.45297e-05 -4.77083e-15 -32.1535 10.7568 -3.05181 -2.95214 11.7064 3.73669 12.7025 34.4759 -21.6534 21.5483 0.00482323 -3.18055e-15 47.5669 -3.53559 11.5285 3.92907 -4.35443 -0.7336 -12.3289 0.0724142 20.1774 -0.605757 1.10692 -16.9196 -0.47894 -0.0105388 0.0240584 -3.18055e-15 2.41901 -22.0906 8.94208 0.50409 27.5162 -4.43885 -1.80401 -4.53684 0.121391 1.26931e-16 -0.496081 3.18067e-15 
1.46435 97.8387 4.73106 1.42475 -2.74219 -27.6579 -2.74641 8.90295 -2.0958 -1.37426 2.12453 -1.29815 -1.35329 2.13087 -1.30666 0.944064 1.71441 3.22558 -4.96799 -4.23897 27.2507 -2.28076 1.78528 -8.00858 -21.5247 -1.93889 -50.1392 -0.0130648 5.1684e-15 -32.6858 13.5712 -4.10427 -2.78081 10.9136 3.46819 13.1498 28.6009 -26.4357 28.4748 0.00770149 3.18055e-15 48.878 -7.20131 12.389 3.94136 -4.87163 1.43593e-05 -12.4911 0.292839 18.82 0.788079 1.80146 -16.6083 -0.44778 -0.338135 0.203767 0.00309067 3.52812 -24.8368 9.21783 0.1962 26.9288 -4.6127 -1.84383 -3.75416 0.138121 4.36932e-16 -1.07239 1.27244e-14 
1.49749 97.8314 6.19036 1.35878 -2.03637 -28.9717 -3.41432 8.8976 -1.87514 -1.63962 1.99753 -1.15287 -1.62072 2.00335 -1.1656 0.90146 2.23777 3.21761 -5.06773 -3.76941 29.0839 -1.00852 1.5081 -9.48322 -17.4425 -10.3552 -52.6776 -0.000438892 4.37326e-15 -32.1323 16.0866 -4.22777 -2.5915 9.92064 3.14238 13.2486 23.7079 -32.1687 34.9798 0.000481518 -6.36111e-15 48.8929 -10.2453 14.2892 4.13639 -5.23221 0.76469 -12.6557 0.53183 17.4206 2.18938 2.60795 -16.4743 -0.387179 -0.736618 0.438408 0.0120072 5.24803 -27.5748 9.8881 0.00569764 26.0699 -4.39199 -2.66699 -3.29914 0.181089 9.51312e-17 -1.71322 3.18198e-15 
1.44023 97.7079 7.94197 1.31065 -1.13618 -29.9761 -4.11166 8.88297 -1.75809 -1.94533 1.83609 -1.06639 -1.92745 1.84165 -1.08533 0.866895 2.75003 3.25662 -5.07654 -3.3803 30.8615 0.186877 1.29216 -10.7989 -14.4328 -18.6397 -54.2145 6.11228e-05 3.72721e-15 -31.347 18.2882 -4.27883 -2.66501 8.55811 2.72751 12.7121 20.524 -38.2111 41.4595 7.04246e-15 -6.36111e-15 47.91 -12.3598 16.6796 4.61702 -5.40985 1.71198 -12.8683 0.743453 15.7577 3.30794 3.16394 -16.4146 -0.348019 -0.774287 0.460624 0.0131198 7.25408 -30.1663 10.8361 -0.0924611 24.8466 -3.14271 -3.69552 -2.92366 0.230658 -1.28604e-15 -1.68083 -3.18192e-15 
1.32784 97.4547 9.98624 1.29004 -0.0907438 -30.5667 -4.87371 8.96356 -1.7762 -2.22011 1.70654 -1.07104 -2.20169 1.71291 -1.09257 0.783361 3.18419 3.3662 -4.95285 -3.28433 32.3193 1.26673 1.13839 -11.7194 -12.5556 -26.2288 -55.0497 -2.02633e-15 -1.78906e-15 -31.4515 20.3986 -4.69954 -3.37351 6.21506 2.24121 12.3699 19.3258 -44.4747 47.0863 -8.09888e-16 9.54166e-15 46.4786 -14.0191 18.9547 5.55155 -5.59367 2.60261 -13.1828 0.901387 14.4423 4.17561 4.32721 -16.7591 -0.227666 -1.17087 0.69654 0.0307802 9.28159 -32.6751 11.9124 -0.0610114 23.6065 -1.17408 -4.68213 -2.47834 0.276 8.3802e-17 -1.50929 3.18166e-15 
1.1719 97.0608 12.3001 1.20638 1.19691 -30.8968 -5.68112 9.1407 -1.87575 -2.43086 1.59157 -1.12181 -2.41087 1.59955 -1.14694 0.723294 3.49975 3.49351 -4.70365 -3.48652 33.2541 2.41058 1.00372 -12.2987 -11.9783 -32.642 -55.7889 1.27692e-16 -6.53505e-15 -32.0711 23.0803 -5.59825 -4.90878 2.79976 1.7562 12.7702 18.7684 -50.8656 50.2236 1.22112e-14 -3.18055e-15 45.1289 -16.1048 20.51 6.91444 -5.54677 3.53048 -13.3974 0.935819 13.097 4.68024 5.82417 -17.2676 -0.0444322 -1.61062 0.957987 0.057242 11.5768 -35.3624 13.268 0.0548047 22.9251 0.977788 -5.58659 -1.99213 0.312585 -7.95139e-16 -1.94306 -0 
